<svg width="16" height="16" viewBox="0 0 16 16" fill="none" xmlns="http://www.w3.org/2000/svg">
<path opacity="0.6" d="M14.2113 14.3922C14.2131 14.3943 14.2151 14.3963 14.217 14.3982C14.2714 14.4525 14.3559 14.456 14.4059 14.406C14.4559 14.356 14.4524 14.2715 14.3981 14.2172C14.3961 14.2153 14.3941 14.2133 14.3921 14.2115L10.5255 9.33875C10.4634 9.42942 10.3974 9.51711 10.3279 9.60261C10.2163 9.7398 10.0956 9.87121 9.96675 10C9.87816 10.0886 9.78508 10.1737 9.68927 10.2547C9.57477 10.3516 9.45642 10.4426 9.33721 10.5267L14.2113 14.3922Z" fill="white"/>
<path d="M2.15889 6.11406C1.79157 6.14268 1.48105 6.05907 1.27074 5.84876C0.638649 5.21667 1.15106 3.67943 2.41525 2.41525C3.67943 1.15106 5.21667 0.638649 5.84876 1.27074C6.06053 1.48251 6.14383 1.79587 6.11344 2.16653C6.12299 2.2311 6.22083 2.79442 6.7995 3.37309C7.33397 3.90756 8.86973 3.70927 9.26284 3.64817C9.89024 3.48663 10.4061 3.53912 10.7129 3.84588C11.503 4.63599 10.6063 6.81374 8.71002 8.71002C6.81374 10.6063 4.63599 11.503 3.84588 10.7129C3.54667 10.4137 3.48936 9.91549 3.63663 9.30894C3.69031 8.99839 3.93831 7.38488 3.40004 6.84661C2.8034 6.24998 2.15185 6.1211 2.15185 6.1211L2.15889 6.11406Z" fill="#F73054"/>
</svg>
