<svg width="14" height="14" viewBox="0 0 14 14" fill="none" xmlns="http://www.w3.org/2000/svg">
<g opacity="0.7">
<path fill-rule="evenodd" clip-rule="evenodd" d="M12.9954 2.34319L12.9908 2.31783C12.9875 2.30076 12.9829 2.28388 12.9767 2.26768C12.9534 2.19049 12.9067 2.12291 12.8434 2.07476C12.7802 2.02661 12.7038 2.00048 12.625 2H9.6311C9.58117 2.0007 9.53196 2.01149 9.48609 2.03175C9.44022 2.052 9.39861 2.08124 9.36379 2.11797C9.32897 2.15469 9.30151 2.1981 9.28304 2.2457C9.26458 2.2933 9.25544 2.34418 9.25613 2.39541V3.53881H4.74001V2.39616C4.7407 2.34493 4.73156 2.29424 4.71309 2.24664C4.69463 2.19904 4.66717 2.15563 4.63235 2.1189C4.59753 2.08218 4.5561 2.05275 4.51023 2.0325C4.46436 2.01224 4.41497 2.00145 4.36504 2.00075H1.37132C1.29256 2.00123 1.21595 2.02755 1.15271 2.0757C1.08946 2.12385 1.04287 2.19142 1.0196 2.26862C1.01344 2.28483 1.00864 2.30152 1.00532 2.31858L1.00093 2.34394C0.999692 2.36161 0.999692 2.37943 1.00093 2.3971V2.4063C1.00093 6.48415 2.50077 7.06046 4.11164 8.13532C4.12826 8.14742 4.14821 8.15359 4.16858 8.15298C4.27274 8.37458 4.43347 8.56301 4.63363 8.69847C4.8338 8.83394 5.06602 8.91138 5.30558 8.92238H6.17544C6.31313 9.42559 6.31313 9.95798 6.17544 10.4612H5.50057C4.95011 10.4612 4.00069 10.9482 4.00069 11.2306V12H10.0002V11.2306C10.0002 10.9482 9.05004 10.4612 8.50033 10.4612H7.67532C7.57474 9.95345 7.57474 9.43013 7.67532 8.92238H8.54519C8.78474 8.91138 9.01696 8.83394 9.21713 8.69847C9.4173 8.56301 9.57803 8.37458 9.68218 8.15298C9.70254 8.15354 9.72248 8.14737 9.73912 8.13532C11.3537 7.05816 13 6.48645 13 2.4063V2.3971C13.0002 2.37904 12.9986 2.36094 12.9954 2.34319ZM3.99611 6.9258C3.26728 6.54447 2.66519 5.94979 2.2659 5.21718C1.86661 4.48457 1.6881 3.64688 1.75306 2.81017H3.99758L3.99007 3.53881H3.6616C3.55685 3.53357 3.45439 3.57116 3.37653 3.64325C3.29867 3.71534 3.25179 3.81607 3.24617 3.92351C3.25179 4.03095 3.29867 4.13168 3.37653 4.20377C3.45439 4.27586 3.55685 4.31345 3.6616 4.30821H3.99611C4.55032 5.48925 4.36433 5.82694 3.99611 6.92411V6.9258ZM9.84568 6.9258C9.65676 6.51066 9.57159 6.05381 9.59778 5.59644C9.62396 5.13907 9.76064 4.69555 9.99564 4.30596H10.3301C10.4348 4.31099 10.5372 4.27338 10.615 4.20133C10.6928 4.12928 10.7398 4.02863 10.7456 3.92126C10.7398 3.81389 10.6928 3.71323 10.615 3.64118C10.5372 3.56913 10.4348 3.53152 10.3301 3.53655H10.0009L9.99417 2.80791H12.2455C12.2848 3.6607 12.078 4.50649 11.6511 5.23935C11.2243 5.97221 10.5963 6.55957 9.84568 6.92806V6.9258Z" fill="white"/>
</g>
</svg>
