<svg width="16" height="16" viewBox="0 0 16 16" fill="none" xmlns="http://www.w3.org/2000/svg">
<g opacity="0.7" clip-path="url(#clip0_6_1483)">
<rect x="0.5" y="0.5" width="15" height="15" rx="1.5" stroke="white"/>
<path fill-rule="evenodd" clip-rule="evenodd" d="M7.29999 14.7V13.2542C4.93278 12.9418 3.05816 11.0672 2.74583 8.69999H1.29999V7.29999H2.74583C3.05818 4.9328 4.9328 3.05818 7.29999 2.74583V1.29999H8.69999V2.74583C11.0672 3.05816 12.9418 4.93278 13.2542 7.29999H14.7V8.69999H13.2542C12.9419 11.0672 11.0672 12.9419 8.69999 13.2542V14.7H7.29999ZM10.5 8C10.5 9.38071 9.38071 10.5 8 10.5C6.61929 10.5 5.5 9.38071 5.5 8C5.5 6.61929 6.61929 5.5 8 5.5C9.38071 5.5 10.5 6.61929 10.5 8Z" fill="white"/>
<path d="M8 9.5C8.82843 9.5 9.5 8.82843 9.5 8C9.5 7.17157 8.82843 6.5 8 6.5C7.17157 6.5 6.5 7.17157 6.5 8C6.5 8.82843 7.17157 9.5 8 9.5Z" fill="white"/>
</g>
<defs>
<clipPath id="clip0_6_1483">
<rect width="16" height="16" fill="white"/>
</clipPath>
</defs>
</svg>
