<svg width="16" height="16" viewBox="0 0 16 16" fill="none" xmlns="http://www.w3.org/2000/svg">
<g opacity="0.7" clip-path="url(#clip0_6_1890)">
<rect x="0.5" y="0.5" width="15" height="15" rx="1.5" stroke="white"/>
<path d="M11.3 2H5H4V3V4H5V3H8C9.1 3 10 3.9 10 5V11C10 12.1 9.1 13 8 13H5V12H4V13V14H5H10.6C11.9 14 13 12.9 13 11.6V3.7C13 2.8 12.2 2 11.3 2Z" fill="white"/>
<path d="M9 8L6 5.5V7.3H2V8.6H6V10.5L9 8Z" fill="white"/>
</g>
<defs>
<clipPath id="clip0_6_1890">
<rect width="16" height="16" fill="white"/>
</clipPath>
</defs>
</svg>
