<svg width="16" height="16" viewBox="0 0 16 16" fill="none" xmlns="http://www.w3.org/2000/svg">
<g opacity="0.7" clip-path="url(#clip0_6_1484)">
<rect x="0.5" y="0.5" width="15" height="15" rx="1.5" stroke="white"/>
<path d="M11.4745 3H9.62831C7.22831 3 3.84615 5 3.84615 5H2.92308C2.67826 5 2.44349 5.10536 2.27038 5.29289C2.09727 5.48043 2 5.73478 2 6V9C2 9.26522 2.09727 9.51957 2.27038 9.70711C2.44349 9.89464 2.67826 10 2.92308 10H3.84615C3.84615 10 6.98276 13 8.47261 13C9.03345 12.9955 9.58211 12.8224 10.0575 12.5C10.1268 12.4451 10.185 12.3753 10.2284 12.2951C10.2718 12.2149 10.2995 12.1258 10.3099 12.0335C10.3203 11.9412 10.3131 11.8475 10.2887 11.7583C10.2643 11.6692 10.2234 11.5863 10.1683 11.515C9.69899 11.122 9.10589 10.9446 8.51692 11.021L8.45599 11.015C8.20667 11.0079 7.96947 10.897 7.79363 10.7054C7.61779 10.5137 7.51683 10.2561 7.5117 9.986C7.5236 9.71913 7.6302 9.46756 7.80926 9.28382C7.98832 9.10009 8.22598 8.9984 8.47261 9H9.38462C9.90319 9.02623 10.4069 9.19634 10.8473 9.49402C11.2878 9.7917 11.6503 10.207 11.9 10.7C12.5462 11.68 14 10.539 14 9.453V5.713C13.9951 4.99111 13.7268 4.30064 13.2536 3.79234C12.7805 3.28403 12.1408 2.99919 11.4745 3Z" fill="white"/>
</g>
<defs>
<clipPath id="clip0_6_1484">
<rect width="16" height="16" fill="white"/>
</clipPath>
</defs>
</svg>
