<svg width="16" height="16" viewBox="0 0 16 16" fill="none" xmlns="http://www.w3.org/2000/svg">
<g opacity="0.7" clip-path="url(#clip0_6_1482)">
<rect x="0.5" y="0.5" width="15" height="15" rx="1.5" stroke="white"/>
<path fill-rule="evenodd" clip-rule="evenodd" d="M7.29999 14.7V13.2542C4.93277 12.9419 3.05813 11.0672 2.7458 8.69999H1.29999V7.29999H2.7458C3.05815 4.93279 4.93279 3.05817 7.29999 2.74583V1.29999H8.69999V2.74583C11.0672 3.05817 12.9418 4.93279 13.2542 7.29999H14.7V8.69999H13.2542C12.9418 11.0672 11.0672 12.9419 8.69999 13.2542V14.7H7.29999ZM9.04614 6.68125H12L9.7846 8.55268L11.0154 11.5938L8.06152 9.25446L4.9846 11.5938L6.33845 8.43571L3.99998 6.68125H7.07691L8.06152 3.40625L9.04614 6.68125Z" fill="white"/>
</g>
<defs>
<clipPath id="clip0_6_1482">
<rect width="16" height="16" fill="white"/>
</clipPath>
</defs>
</svg>
