<svg width="16" height="16" viewBox="0 0 16 16" fill="none" xmlns="http://www.w3.org/2000/svg">
<g opacity="0.7" clip-path="url(#clip0_6_1897)">
<rect x="0.5" y="0.5" width="15" height="15" rx="1.5" stroke="white"/>
<path d="M4.29999 5.3C4.69999 5.3 4.99999 5 4.99999 4.6C4.99999 4.3 4.69999 4 4.29999 4C4.29999 4 2.29999 4.3 2.29999 4.6C2.29999 5 4.29999 5.3 4.29999 5.3Z" fill="white"/>
<path d="M4.29999 11.7C4.29999 11.7 2.29999 12 2.29999 12.3C2.29999 12.7 4.29999 12.9 4.29999 12.9C4.69999 13 4.99999 12.7 4.99999 12.4C4.99999 12 4.69999 11.7 4.29999 11.7Z" fill="white"/>
<path d="M3 7.9C3.4 7.9 3.7 7.6 3.7 7.3C3.7 6.9 3.4 6.7 3 6.7C3 6.7 1 7 1 7.3C1 7.6 3 7.9 3 7.9Z" fill="white"/>
<path d="M3.7 9.8C3.7 9.4 3.4 9.2 3 9.2C3 9.2 1 9.5 1 9.8C1 10.2 3 10.4 3 10.4C3.4 10.4 3.7 10.1 3.7 9.8Z" fill="white"/>
<path fill-rule="evenodd" clip-rule="evenodd" d="M10 3.00002V4.10002C12.2 4.30002 14 6.20002 14 8.50002C14 11 12 13 9.5 13C7 13 5 11 5 8.50002C5 6.20002 6.8 4.30002 9 4.10002V3.00002H8.4C8.1 3.00002 7.9 2.70002 7.9 2.50002C7.9 2.20002 8.1 1.90002 8.4 1.90002H10.6C10.9 1.90002 11.1 2.20002 11.1 2.50002C11.1 2.70002 10.9 3.00002 10.6 3.00002H10ZM9.5 9C9.2 9 9 8.8 9 8.5V5.5C9 5.2 9.2 5 9.5 5C9.8 5 10 5.2 10 5.5V8H12.5C12.8 8 13 8.2 13 8.5C13 8.8 12.8 9 12.5 9H9.5Z" fill="white"/>
</g>
<defs>
<clipPath id="clip0_6_1897">
<rect width="16" height="16" fill="white"/>
</clipPath>
</defs>
</svg>
