<svg width="15" height="12" viewBox="0 0 15 12" fill="none" xmlns="http://www.w3.org/2000/svg">
<path fill-rule="evenodd" clip-rule="evenodd" d="M12.9371 0.145866C13.1306 0.339052 13.1306 0.652269 12.9371 0.845455L10.5749 3.20343C10.5663 3.21271 10.5574 3.22161 10.5481 3.23012L8.85089 4.92432C8.84609 4.92951 8.84116 4.93461 8.8361 4.93963C8.80542 4.97007 8.77446 5.0008 8.74317 5.03185L6.10452 7.66575C6.07358 7.69681 6.04236 7.72816 6.01086 7.75979C6.00583 7.76484 6.00071 7.76977 5.99552 7.77456L4.29869 9.46834C4.29005 9.47765 4.2811 9.48658 4.27186 9.49512L1.90852 11.8542C1.71498 12.0474 1.4012 12.0474 1.20767 11.8542C1.01413 11.661 1.01413 11.3478 1.20767 11.1546L3.13367 9.23208C2.14703 8.61345 1.24784 7.86397 0.461088 7.00343L0.45924 7.00141C0.210783 6.72661 0.0732574 6.36959 0.0732574 5.99943C0.0732574 5.62927 0.210788 5.27225 0.459245 4.99746L0.464063 4.99213C1.00632 4.40961 1.90049 3.54444 3.02845 2.82212C4.15383 2.10145 5.5456 1.50156 7.07333 1.50156H7.08369C8.1417 1.52364 9.17958 1.78247 10.1215 2.25681L12.2363 0.145866C12.4298 -0.0473199 12.7436 -0.0473199 12.9371 0.145866ZM8.45219 3.92313C8.0473 3.65359 7.56905 3.50572 7.07514 3.50364H7.07305C6.40981 3.50364 5.77373 3.76664 5.30474 4.23479C4.83575 4.70293 4.57228 5.33786 4.57228 5.99992L4.57229 6.002C4.57437 6.49502 4.7225 6.97241 4.99253 7.37657L3.85413 8.51292C2.86754 7.92011 1.9715 7.18757 1.19425 6.33766C1.11066 6.24478 1.06441 6.12431 1.06441 5.99943C1.06441 5.87516 1.11021 5.75527 1.19302 5.66258C1.70373 5.11429 2.53291 4.31491 3.56364 3.65485C4.59745 2.99282 5.80055 2.49229 7.06818 2.49093C7.86583 2.50826 8.65009 2.68201 9.37698 3L8.45219 3.92313Z" fill="white"/>
<path d="M12.7066 4.03009C12.5026 3.84792 12.1893 3.86529 12.0068 4.06889C11.8243 4.2725 11.8417 4.58523 12.0457 4.76741C12.4103 5.09302 12.7188 5.41033 12.9523 5.66265C13.0354 5.75542 13.0813 5.87552 13.0813 6.00002C13.0813 6.12429 13.0355 6.24417 12.9527 6.33686C12.442 6.88516 11.6128 7.68454 10.5821 8.3446C9.54689 9.00753 8.34193 9.50852 7.07241 9.50852H6.67137C6.39767 9.50852 6.1758 9.73 6.1758 10.0032C6.1758 10.2764 6.39767 10.4979 6.67137 10.4979H7.07241C8.60014 10.4979 9.99192 9.898 11.1173 9.17733C12.2453 8.45501 13.1394 7.58981 13.6816 7.00728L13.6865 7.00199C13.935 6.7272 14.0725 6.37018 14.0725 6.00002C14.0725 5.62986 13.935 5.27284 13.6865 4.99805L13.6828 4.99395C13.4352 4.72625 13.1029 4.384 12.7066 4.03009Z" fill="white"/>
</svg>
